<?xml version="1.0" encoding="UTF-8"?>
<svg width="99" height="99" version="1.1" viewBox="0 0 99 99" xmlns="http://www.w3.org/2000/svg" xmlns:xlink="http://www.w3.org/1999/xlink">
    <!--Generated by IJSVG (https://github.com/curthard89/IJSVG)-->
    <g transform="scale(6.1875)">
        <path fill="#000000" d="M15,2h-2v-1c0,-0.553 -0.447,-1 -1,-1c-0.553,0 -1,0.447 -1,1v1h-2v-1c0,-0.553 -0.447,-1 -1,-1c-0.553,0 -1,0.447 -1,1v1h-2v-1c0,-0.553 -0.447,-1 -1,-1c-0.553,0 -1,0.447 -1,1v1h-2c-0.553,0 -1,0.447 -1,1v12c0,0.553 0.447,1 1,1h14c0.553,0 1,-0.447 1,-1v-12c0,-0.553 -0.447,-1 -1,-1Zm-1,12h-12v-7h12v7Z"></path>
    </g>
</svg>